<svg width="133" height="41" viewBox="0 0 133 41" fill="none" xmlns="http://www.w3.org/2000/svg">
<g clip-path="url(#clip0_5125_286)">
<path d="M122.55 27.9501H133V36.5001H122.55V27.9501Z" fill="white"/>
</g>
<path d="M25.8838 36.5H3.08472V3.24072H25.8838V9.89722H9.74121V16.5537H20.6653V23.2102H9.74121V29.8435H25.8838V36.5Z" fill="white"/>
<path d="M33.9263 13.2139C33.9263 11.8377 34.1892 10.5466 34.7149 9.34058C35.2406 8.13452 35.9519 7.08309 36.8487 6.18628C37.761 5.27401 38.8201 4.55501 40.0262 4.0293C41.2322 3.50358 42.5233 3.24072 43.8995 3.24072H59.1607V9.89722H43.8995C43.4356 9.89722 43.0027 9.98226 42.6006 10.1523C42.1986 10.3224 41.843 10.5621 41.5337 10.8713C41.24 11.1651 41.008 11.513 40.8379 11.915C40.6679 12.3171 40.5828 12.75 40.5828 13.2139C40.5828 13.6777 40.6679 14.1184 40.8379 14.5359C41.008 14.9379 41.24 15.2935 41.5337 15.6028C41.843 15.8966 42.1986 16.1285 42.6006 16.2986C43.0027 16.4687 43.4356 16.5537 43.8995 16.5537H50.556C51.9321 16.5537 53.2232 16.8166 54.4292 17.3423C55.6508 17.8525 56.7099 18.5638 57.6067 19.4761C58.519 20.3729 59.2303 21.432 59.7405 22.6536C60.2662 23.8596 60.5291 25.1507 60.5291 26.5269C60.5291 27.903 60.2662 29.1941 59.7405 30.4001C59.2303 31.6062 58.519 32.6654 57.6067 33.5776C56.7099 34.4744 55.6508 35.1857 54.4292 35.7114C53.2232 36.2371 51.9321 36.5 50.556 36.5H35.7818V29.8435H50.556C51.0198 29.8435 51.4528 29.7585 51.8548 29.5884C52.2568 29.4183 52.6047 29.1864 52.8985 28.8926C53.2077 28.5833 53.4474 28.2277 53.6175 27.8257C53.7876 27.4237 53.8726 26.9907 53.8726 26.5269C53.8726 26.063 53.7876 25.63 53.6175 25.228C53.4474 24.826 53.2077 24.4781 52.8985 24.1843C52.6047 23.8751 52.2568 23.6354 51.8548 23.4653C51.4528 23.2952 51.0198 23.2102 50.556 23.2102H43.8995C42.5233 23.2102 41.2322 22.9473 40.0262 22.4216C38.8201 21.8959 37.761 21.1846 36.8487 20.2878C35.9519 19.3756 35.2406 18.3164 34.7149 17.1103C34.1892 15.8888 33.9263 14.59 33.9263 13.2139Z" fill="white"/>
<path d="M97.0763 33.137C95.5301 34.4512 93.806 35.464 91.9042 36.1753C90.0023 36.8711 88.0231 37.219 85.9667 37.219C84.3895 37.219 82.8665 37.0103 81.3976 36.5928C79.9441 36.1908 78.5834 35.6186 77.3155 34.8765C76.0476 34.1188 74.888 33.222 73.8365 32.186C72.7851 31.1346 71.8883 29.9749 71.1461 28.707C70.4039 27.4237 69.8241 26.0475 69.4066 24.5786C69.0046 23.1097 68.8036 21.5867 68.8036 20.0095C68.8036 18.4324 69.0046 16.9171 69.4066 15.4636C69.8241 14.0102 70.4039 12.6495 71.1461 11.3816C71.8883 10.0982 72.7851 8.93856 73.8365 7.90259C74.888 6.85116 76.0476 5.95435 77.3155 5.21216C78.5834 4.46997 79.9441 3.89787 81.3976 3.49585C82.8665 3.07837 84.3895 2.86963 85.9667 2.86963C88.0231 2.86963 90.0023 3.22526 91.9042 3.93652C93.806 4.63232 95.5301 5.63737 97.0763 6.95166L93.5973 12.75C92.5922 11.7295 91.4326 10.9332 90.1183 10.3611C88.804 9.77352 87.4201 9.47974 85.9667 9.47974C84.5132 9.47974 83.1448 9.75806 81.8614 10.3147C80.5935 10.8713 79.4802 11.629 78.5216 12.5876C77.5629 13.5308 76.8053 14.6441 76.2486 15.9275C75.692 17.1954 75.4137 18.5561 75.4137 20.0095C75.4137 21.4784 75.692 22.8546 76.2486 24.1379C76.8053 25.4213 77.5629 26.5423 78.5216 27.501C79.4802 28.4596 80.5935 29.2173 81.8614 29.7739C83.1448 30.3306 84.5132 30.6089 85.9667 30.6089C86.8016 30.6089 87.6134 30.5084 88.402 30.3074C89.1905 30.1064 89.9405 29.828 90.6517 29.4724V20.0095H97.0763V33.137Z" fill="white"/>
<path d="M114.559 36.5H107.902V3.24072H114.559V36.5Z" fill="white"/>
<defs>
<clipPath id="clip0_5125_286">
<rect width="133" height="39.9" fill="white" transform="translate(0 0.400024)"/>
</clipPath>
</defs>
</svg>
